<svg width="60" height="39" viewBox="0 0 60 39" fill="none" xmlns="http://www.w3.org/2000/svg">
<g clip-path="url(#clip0_3506_334)">
<path d="M39.1328 2.01615e-06C35.6017 -0.00168078 32.1503 1.05009 29.2202 3.02078C29.0185 3.15867 27.6243 4.15453 27.563 4.20305C25.247 5.94453 23.6919 6.24584 21.5623 5.71216C21.432 5.67896 20.8218 5.46958 20.6303 5.39553C18.6412 4.64663 16.5015 4.38613 14.3909 4.63593C12.2803 4.88573 10.2604 5.63852 8.50119 6.83104C6.74193 8.02356 5.29464 9.62096 4.28095 11.489C3.26726 13.357 2.71679 15.4411 2.67581 17.566C2.63483 19.691 3.10453 21.7947 4.04544 23.7004C4.98635 25.6061 6.37098 27.2582 8.08295 28.5176C9.79492 29.7771 11.7842 30.6072 13.8836 30.9382C15.983 31.2692 18.1312 31.0914 20.1476 30.4197C23.3242 29.4698 25.0478 29.7303 27.0421 31.1373C27.4404 31.4181 28.4005 32.0335 28.5997 32.1791C30.8695 33.8447 33.5017 34.9487 36.2806 35.4005C39.0595 35.8523 41.9059 35.6391 44.5864 34.7784C47.267 33.9177 49.7054 32.4339 51.7018 30.4488C53.6982 28.4636 55.1956 26.0336 56.0714 23.3579C56.9473 20.6823 57.1765 17.8371 56.7404 15.0558C56.3042 12.2744 55.2151 9.63596 53.5623 7.35681C51.9095 5.07765 49.7401 3.22264 47.2319 1.94385C44.7238 0.665067 41.9482 -0.00108704 39.1328 2.01615e-06V2.01615e-06Z" fill="#007858"/>
<path d="M32.7056 20.571C32.1984 21.0701 31.5371 21.3828 30.8294 21.4579C30.1218 21.533 29.4096 21.3662 28.8089 20.9846L27.6267 22.8615C28.651 23.5088 29.8638 23.7913 31.0687 23.6634C32.2737 23.5355 33.4002 23.0046 34.2657 22.1567L32.7056 20.571ZM30.5759 12.9258C29.5995 12.9103 28.6372 13.1607 27.7922 13.6503C26.9471 14.1398 26.2512 14.8501 25.7789 15.7049C25.3067 16.5597 25.0758 17.5269 25.1112 18.5028C25.1466 19.4788 25.4468 20.4267 25.9797 21.2451L35.7289 17.0778C35.4545 15.911 34.7988 14.869 33.8654 14.117C32.932 13.3649 31.7744 12.9457 30.5759 12.9258V12.9258ZM27.3458 18.6405C27.2721 17.9661 27.4171 17.2859 27.7594 16.7002C28.1018 16.1145 28.6233 15.6543 29.2471 15.3877C29.8709 15.121 30.5639 15.0619 31.2239 15.2191C31.8838 15.3762 32.4758 15.7414 32.9124 16.2607L27.3458 18.6405ZM38.7905 10.5026V20.8927L40.5933 21.6409L39.743 23.6837L37.9555 22.9432C37.5956 22.7892 37.2898 22.5313 37.0771 22.2027C36.8396 21.82 36.7197 21.3761 36.7324 20.9259V10.5026H38.7905ZM23.0917 10.5026V20.8927L24.8791 21.6409L24.0288 23.6837L22.2414 22.9432C21.8935 22.788 21.5981 22.5352 21.391 22.2154C21.1526 21.8331 21.0319 21.3891 21.0438 20.9387V10.5026H23.0917Z" fill="white"/>
<path d="M47.6616 15.4511C48.0362 15.6318 48.3716 15.8845 48.6485 16.1948C48.9254 16.5051 49.1385 16.867 49.2756 17.2597C49.4126 17.6523 49.471 18.0682 49.4473 18.4834C49.4236 18.8986 49.3183 19.3052 49.1375 19.6797L51.1318 20.6373C51.6716 19.5114 51.8032 18.233 51.5042 17.0208C51.2052 15.8086 50.494 14.738 49.4926 13.9924C48.4911 13.2468 47.2616 12.8726 46.0145 12.9337C44.7675 12.9948 43.5805 13.4876 42.6567 14.3276L44.148 15.9644C44.6151 15.5371 45.1996 15.2598 45.826 15.1683C46.4524 15.0768 47.0918 15.1753 47.6616 15.4511V15.4511Z" fill="#C7D540"/>
<path d="M44.9167 21.1633C44.1597 20.7987 43.5783 20.1487 43.3002 19.3559C43.022 18.5631 43.0698 17.6923 43.4331 16.9347L41.4388 15.9746C40.9043 17.0989 40.7761 18.3738 41.076 19.582C41.3758 20.7903 42.0852 21.8573 43.0833 22.6013C44.0814 23.3453 45.3066 23.7203 46.5502 23.6625C47.7937 23.6047 48.9788 23.1177 49.9036 22.2843L48.4124 20.65C47.9465 21.073 47.3653 21.3477 46.7427 21.4391C46.1202 21.5305 45.4845 21.4345 44.9167 21.1633ZM19.0064 21.3139V18.3059C19.0064 17.2454 18.6919 16.2086 18.1027 15.3268C17.5135 14.445 16.676 13.7577 15.6961 13.3518C14.7163 12.9459 13.6381 12.8397 12.5979 13.0466C11.5577 13.2535 10.6023 13.7643 9.85233 14.5142C9.1024 15.2641 8.59168 16.2196 8.38478 17.2598C8.17787 18.3 8.28406 19.3782 8.68992 20.358C9.09579 21.3378 9.78309 22.1753 10.6649 22.7646C11.5468 23.3538 12.5835 23.6683 13.6441 23.6683C14.4754 23.6684 15.2954 23.4752 16.0392 23.1039L15.1762 21.0867C14.6929 21.3539 14.1483 21.4903 13.5962 21.4824C13.0441 21.4745 12.5036 21.3226 12.0282 21.0417C11.5528 20.7608 11.1589 20.3606 10.8857 19.8808C10.6124 19.401 10.4692 18.8581 10.4701 18.3059C10.4672 17.7872 10.5926 17.2758 10.8352 16.8173C11.0488 16.4171 11.3454 16.0672 11.7052 15.7911C12.065 15.515 12.4797 15.319 12.9214 15.2162C13.1557 15.1607 13.3956 15.1324 13.6364 15.1319C14.4791 15.1313 15.2876 15.4652 15.8842 16.0604C16.4808 16.6555 16.8167 17.4632 16.8181 18.3059V21.2884C16.8054 21.7386 16.9253 22.1825 17.1628 22.5652C17.3769 22.8925 17.6823 23.15 18.0412 23.3057L19.0473 23.704L19.9001 21.6612L19.0064 21.3139Z" fill="white"/>
</g>
<defs>
<clipPath id="clip0_3506_334">
<rect width="60" height="38.016" fill="white"/>
</clipPath>
</defs>
</svg>
