<svg width="60" height="27" viewBox="0 0 60 27" fill="none" xmlns="http://www.w3.org/2000/svg">
<g clip-path="url(#clip0_3506_189)">
<path d="M16.4738 0H10.2566C7.50948 0.129886 5.26396 1.23634 4.61559 3.518C4.27751 4.70794 4.09145 6.01481 3.82709 7.24832C2.48312 13.5203 1.29142 19.9652 0.00585938 26.112H48.4086C52.1506 26.112 54.7201 25.3213 55.4143 22.3512C55.7368 20.9715 56.0458 19.409 56.3544 17.8932C57.5574 11.9832 58.7615 6.07357 59.9938 0H16.4738Z" fill="#822124"/>
<path d="M15.9888 9.28027C16.2488 9.10116 16.5837 8.28546 16.2011 7.94585C16.0799 7.83833 15.8772 7.80713 15.5945 7.85494C15.3323 7.89922 15.1814 7.98836 15.079 8.1279C14.9143 8.35223 14.7633 9.02898 15.0183 9.28039C15.2668 9.52509 15.8233 9.39415 15.9888 9.28027V9.28027ZM12.2888 7.94585C12.1025 9.15463 11.8927 10.3399 11.6823 11.5245C10.3312 11.5387 8.95182 11.5911 7.64871 11.4941C7.89483 10.3351 8.07135 9.10646 8.31593 7.94585H6.86021C6.33913 10.9023 5.86504 13.9059 5.2832 16.8016H6.7693C7.00234 15.3163 7.22043 13.8157 7.52742 12.404C8.79449 12.3728 10.3131 12.3184 11.5307 12.4344C11.2796 13.902 10.9763 15.317 10.7422 16.8016H12.2283C12.7059 13.8015 13.2089 10.827 13.8054 7.94585H12.2888V7.94585ZM33.3058 10.4934C32.1496 10.0264 31.2405 10.8156 30.819 11.5549C30.9146 11.226 30.954 10.8408 31.0314 10.4934H29.879C29.5972 12.6784 29.182 14.7297 28.7872 16.8016H30.0914C30.2742 15.5718 30.353 13.914 30.7585 12.7376C31.0826 11.7976 31.9306 10.9967 33.1544 11.4336C33.1713 11.0868 33.2706 10.8221 33.3058 10.4934V10.4934ZM34.0336 15.3156C33.9133 15.0049 33.8824 14.4922 33.9124 14.1023C33.9797 13.2261 34.2991 12.1592 34.7919 11.6762C35.472 11.0095 36.8145 11.1199 37.8854 11.4942C37.9185 11.1333 37.991 10.8114 38.0371 10.4631C36.2808 10.1763 34.6143 10.3548 33.7307 11.282C32.8655 12.1897 32.2986 14.2759 32.6994 15.5885C33.1685 17.1246 35.2724 17.2081 36.9756 16.6197C37.051 16.311 37.0909 15.9668 37.1575 15.6493C36.2267 16.1327 34.4472 16.384 34.0336 15.3156V15.3156ZM48.6819 10.5237C47.5293 9.94737 46.5697 10.9144 46.1951 11.4941C46.3018 11.1967 46.3079 10.7983 46.4073 10.4933H45.2549C44.9441 12.6593 44.5697 14.7615 44.1329 16.8014H45.4673C45.4757 15.9654 45.64 15.3469 45.7704 14.5271C46.0493 12.7763 46.4589 10.8563 48.5002 11.4335C48.5677 11.1374 48.5958 10.8016 48.6819 10.5237ZM14.6543 10.4934C14.619 10.4985 14.6214 10.5413 14.624 10.5843C14.3366 12.7333 13.9477 14.7808 13.5322 16.8014H14.8363C15.1496 14.638 15.5085 12.5204 15.9584 10.4933L14.6543 10.4934V10.4934ZM26.1181 10.3721C25.1758 10.4448 24.3793 10.7159 23.8133 11.3123C23.119 12.0437 22.5568 13.6608 22.7215 15.1336C22.9566 17.2347 25.5726 17.1592 27.6649 16.65C27.7006 16.2812 27.7898 15.966 27.8468 15.6188C26.985 15.9413 25.4884 16.3915 24.6017 15.8312C23.9323 15.4079 23.9284 14.3364 24.1468 13.405C25.553 13.3602 27.0146 13.3687 28.4229 13.405C28.5121 12.7448 28.7678 12.0251 28.5442 11.3731C28.2493 10.5123 27.193 10.2892 26.1181 10.3721ZM27.3615 12.677H24.2983C24.3953 11.9728 25.0289 11.1988 26.0271 11.1606C26.9666 11.1247 27.6392 11.5055 27.3615 12.677V12.677ZM21.1748 10.4934C20.0711 10.0788 18.7259 10.5737 18.1427 11.0445C18.1448 11.0652 18.1288 11.0681 18.1116 11.0696C18.1215 11.0612 18.1323 11.0529 18.1427 11.0445C18.1426 11.0428 18.1424 11.041 18.1421 11.0393C18.1519 10.8369 18.2231 10.6958 18.233 10.4934H17.1109C16.6433 13.6044 16.0887 16.6285 15.5036 19.622H16.8077C16.9964 18.4562 17.121 17.2262 17.384 16.1343C17.6818 17.2827 19.6264 17.0633 20.4471 16.6196C22.1401 15.7039 23.446 11.3464 21.1748 10.4934V10.4934ZM20.1437 15.6188C19.446 16.3577 17.7308 16.3467 17.5962 15.1031C17.5376 14.5622 17.7391 13.9949 17.839 13.4352C17.9397 12.8687 18.0123 12.3251 18.1117 11.8278C18.7989 10.9887 20.8183 10.8873 21.0232 12.2827C21.2009 13.4942 20.7214 15.0068 20.1437 15.6188V15.6188ZM53.5342 7.76391C53.4224 8.74389 53.273 9.6863 53.0794 10.5843C49.8805 9.57172 47.9188 11.9253 47.9541 14.8303C47.9611 15.3921 48.0578 15.9492 48.4089 16.3467C49.0147 17.0313 50.7483 17.1953 51.6238 16.6195C51.7931 16.5081 51.9664 16.3053 52.0786 16.1647C52.163 16.0589 52.2969 15.7815 52.3213 15.8614C52.2751 16.1691 52.2064 16.4543 52.2001 16.8014H53.3829C53.611 13.5316 54.3156 10.7387 54.8386 7.76379H53.5343V7.76391H53.5342ZM50.6229 16.104C49.745 16.1228 49.3085 15.5795 49.2883 14.6786C49.2534 13.1009 49.9454 11.3481 51.3507 11.1909C52.005 11.1178 52.4787 11.2699 52.9581 11.4336C52.5179 13.2058 52.6768 16.0599 50.6229 16.104V16.104ZM39.3713 10.4934C39.3071 10.8537 39.2085 11.1798 39.1287 11.5245C39.8982 11.3315 42.2945 10.7399 42.5254 11.7671C42.6021 12.1083 42.4698 12.4709 42.3737 12.7376C40.207 12.5324 38.4409 12.8924 37.9762 14.4359C37.6651 15.4698 38.0111 16.4873 38.6738 16.7713C39.9502 17.3182 41.5027 16.6917 42.0401 15.8312C41.9843 16.129 41.9314 16.4302 41.9493 16.8016H43.0713C43.0833 15.7269 43.2397 14.857 43.4049 13.89C43.5458 13.0665 43.8108 12.2513 43.7689 11.5245C43.6724 9.85999 40.9148 10.4488 39.3713 10.4934V10.4934ZM41.4942 15.5884C40.8222 16.2463 38.9357 16.4332 39.1287 14.8606C39.2888 13.5544 40.7111 13.2768 42.2522 13.4654C42.1377 14.1799 42.0063 15.0871 41.4942 15.5884V15.5884Z" fill="white"/>
</g>
<defs>
<clipPath id="clip0_3506_189">
<rect width="60" height="26.112" fill="white"/>
</clipPath>
</defs>
</svg>
