<svg width="32" height="32" viewBox="0 0 32 32" fill="none" xmlns="http://www.w3.org/2000/svg">
<path d="M7.28809 23.292L15.2851 15.295L16.6991 16.709L8.70209 24.706L7.28809 23.292Z" fill="white"/>
<path d="M16.9998 29.9999C16.8732 30.0003 16.7476 29.9765 16.6298 29.9299C16.466 29.8646 16.3223 29.7572 16.2135 29.6184C16.1046 29.4797 16.0343 29.3146 16.0098 29.1399L15.0098 22.1399L17.0098 21.8599L17.7598 27.1299L20.9998 24.5199V16.9999C20.9991 16.8683 21.0243 16.7379 21.074 16.616C21.1238 16.4942 21.1971 16.3834 21.2898 16.2899L25.3598 12.2199C26.1985 11.387 26.8636 10.396 27.3167 9.30433C27.7699 8.21264 28.0021 7.04194 27.9998 5.85994V3.99994H26.1398C24.9578 3.99769 23.7871 4.22986 22.6954 4.68301C21.6038 5.13617 20.6128 5.8013 19.7798 6.63994L15.7098 10.7099C15.6164 10.8026 15.5056 10.8759 15.3837 10.9257C15.2619 10.9755 15.1314 11.0007 14.9998 10.9999H7.47982L4.86982 14.2599L10.1398 15.0099L9.85982 17.0099L2.85982 16.0099C2.68516 15.9854 2.52009 15.9152 2.38135 15.8063C2.24261 15.6974 2.13513 15.5538 2.06982 15.3899C2.0037 15.225 1.98275 15.0453 2.00911 14.8696C2.03548 14.6938 2.10821 14.5283 2.21982 14.3899L6.21982 9.38994C6.31194 9.27025 6.42998 9.17298 6.56507 9.10544C6.70016 9.03789 6.8488 9.00182 6.99982 8.99994H14.5898L18.3598 5.21994C19.379 4.19505 20.5915 3.38267 21.927 2.82993C23.2625 2.27719 24.6945 1.99507 26.1398 1.99994H27.9998C28.5303 1.99994 29.039 2.21065 29.414 2.58573C29.7891 2.9608 29.9998 3.46951 29.9998 3.99994V5.85994C30.0047 7.30531 29.7226 8.73726 29.1698 10.0728C28.6171 11.4083 27.8047 12.6208 26.7798 13.6399L22.9998 17.4099V24.9999C22.9991 25.1501 22.9646 25.2983 22.8988 25.4333C22.833 25.5683 22.7377 25.6868 22.6198 25.7799L17.6198 29.7799C17.4439 29.9211 17.2254 29.9986 16.9998 29.9999Z" fill="white"/>
</svg>
